<svg viewBox="20 -26 64 64" id="manager"><path class="akst0" d="M84 36.9c0-.5-1-11.8-16.7-15.9-3.5-.9-6.4-3.6-7.3-4.4v-4.1c1-.9 3.5-3.3 3.9-6.5 1.4-.3 3.3-1.7 4.1-6.8.5-3.3-.1-5.1-1.8-5.7.8-4.2-.3-9.1-3-12.5-1.8-2.3-4-3.6-6.5-3.9l-1-3H55c-6.9 0-11.8 1.9-14.8 5.7-3.7 4.8-3 11-2.4 13.7-1.8.6-2.3 2.4-1.8 5.7.8 5.1 2.7 6.5 4.1 6.8.4 3.2 2.9 5.7 3.9 6.5v4.1c-.9.9-3.8 3.5-7.3 4.4C21 25.1 20 36.5 20 36.9l-.1 1.1H84v-1.1zM45.6 11.2S42 8.4 42 5v-.4l-.7-.6h-.4c-1 .1-2.3-1.2-2.9-5.2-.5-3.3.4-3.5.8-3.6.3-.1.8-.1 1-.6.2-.2.3-.5.2-.9-.5-1.8-1.7-8.2 1.8-12.8 2.5-3.2 6.6-4.8 12.5-5l1 3h.7c2.1 0 4 1.1 5.6 3.1C64-14.7 65-10.1 64-6.3c-.1.3 0 .6.1.9.3.4.7.5 1 .6.5.1 1.3.3.8 3.6C65.3 2.7 64 4 63 4h-.5l-.5.6V5c0 3.4-3.6 6.2-3.6 6.2l-.4.3v3.7c0 1.8-3.1 2.8-6 2.8s-6-1-6-2.8v-3.7l-.4-.3zM37.3 23c1.4-.4 2.7-1 3.8-1.6.3 4.1 1.7 10.9 4 14.6H22.2c.6-2.7 3.4-10 15.1-13zm10.2 13C45 33.1 43 24.4 43 20.1c1.1-.8 1.9-1.6 2.4-2 .4.3.8.6 1.4.9.9.4 2 .7 3.2.9L49.1 36h-1.6zm7.4 0L54 19.9c1.8-.3 3.5-.8 4.6-1.8.4.4 1.3 1.2 2.4 2 0 4.3-2 13.1-4.5 15.9h-1.6zm4.1 0c2.3-3.8 3.7-10.5 4-14.6 1.1.7 2.4 1.3 3.8 1.6 11.7 3 14.5 10.3 15.1 13H59z"></path></svg>