<svg viewBox="0 0 64 64" id="technology"><path d="M62.5 55.5l-15-15 .7-.7c.4-.4.4-1 0-1.4s-1-.4-1.4 0l-.7.7-2.8 2.8-7.6-7.6-1.4 1.4 7.6 7.6-2.8 2.8-.7.7c-.4.4-.4 1 0 1.4.2.2.5.3.7.3s.5-.1.7-.3l.7-.7 15 15c1 1 2.3 1.5 3.5 1.5s2.6-.5 3.5-1.5c2-1.9 2-5.1 0-7zm-1.4 5.6c-1.2 1.2-3.1 1.2-4.2 0l-15-15 4.2-4.2 15 15c1.2 1.2 1.2 3.1 0 4.2zM9.4 5.1L5.1.9.9 5.1l4.2 4.2c.6.6 1.4.9 2.1.9.4 0 .9-.1 1.3-.3l19.8 19.8 1.4-1.4L9.9 8.5c.6-1.1.4-2.4-.5-3.4zM6.5 8L3.7 5.1l1.4-1.4L8 6.5c.4.4.4 1 0 1.4-.4.4-1.1.4-1.5.1z"></path><path d="M62.1 6.1l-1.5 1.5-5.4 5.4H51V8.8l5.7-5.7 1.2-1.2C53.3-.8 47.3-.2 43.3 3.7 41 6 39.8 9 39.8 12.2c0 1.4.3 2.8.8 4.2L16.4 40.6c-1.3-.5-2.7-.8-4.2-.8C9 39.8 6 41 3.7 43.3c-3.9 3.9-4.6 10-1.8 14.6L3 56.7 8.8 51H13v4.2L7.6 61l-1.5 1.3c1.8 1.1 3.9 1.6 6.1 1.6 3.2 0 6.2-1.3 8.5-3.6 3.4-3.4 4.3-8.4 2.7-12.7l24.2-24.2c1.3.5 2.7.8 4.2.8 3.1 0 6.1-1.2 8.5-3.5 2.3-2.3 3.5-5.3 3.5-8.5 0-2.2-.6-4.3-1.7-6.1zm-3.2 13.2c-3.2 3.2-7.9 3.8-11.7 1.8l-1.5 1.5-23.2 23.1-1.5 1.5c2 3.8 1.4 8.5-1.8 11.7-1.9 1.9-4.4 2.9-7.1 2.9-.9 0-1.7-.1-2.6-.3l5.1-5.1.3-.3V49h-7l-2 2-3.4 3.4c-.9-3.3 0-7 2.6-9.7 1.9-1.9 4.4-2.9 7.1-2.9 1.6 0 3.2.4 4.6 1.1l1.5-1.5 23.2-23.2 1.5-1.5c-.7-1.4-1.1-3-1.1-4.6 0-2.7 1-5.2 2.9-7.1 1.9-1.9 4.5-2.9 7.1-2.9.9 0 1.7.1 2.6.3L51 5.9l-2 2V15h7.1l.3-.3 5.1-5.1c.2.8.3 1.7.3 2.6 0 2.7-1 5.2-2.9 7.1z"></path></svg>